<svg width="123" height="40" viewBox="0 0 123 40" fill="none" xmlns="http://www.w3.org/2000/svg">
<path d="M56.7144 25H53.9019L59.0226 10.4545H62.2755L67.4033 25H64.5908L60.7059 13.4375H60.5922L56.7144 25ZM56.8067 19.2969H64.4772V21.4134H56.8067V19.2969ZM69.2837 25V14.0909H71.8547V25H69.2837ZM70.5763 12.5426C70.1691 12.5426 69.8187 12.4077 69.5251 12.1378C69.2316 11.8632 69.0848 11.5341 69.0848 11.1506C69.0848 10.7623 69.2316 10.4332 69.5251 10.1634C69.8187 9.88873 70.1691 9.75142 70.5763 9.75142C70.9882 9.75142 71.3386 9.88873 71.6274 10.1634C71.921 10.4332 72.0677 10.7623 72.0677 11.1506C72.0677 11.5341 71.921 11.8632 71.6274 12.1378C71.3386 12.4077 70.9882 12.5426 70.5763 12.5426ZM78.5468 25.1918C77.6898 25.1918 76.9227 24.9716 76.2457 24.5312C75.5686 24.0909 75.0335 23.4517 74.6405 22.6136C74.2476 21.7756 74.0511 20.7576 74.0511 19.5597C74.0511 18.3475 74.2499 17.3248 74.6476 16.4915C75.0501 15.6534 75.5922 15.0213 76.2741 14.5952C76.9559 14.1643 77.7158 13.9489 78.5539 13.9489C79.1931 13.9489 79.7187 14.0578 80.1306 14.2756C80.5425 14.4886 80.8692 14.7467 81.1107 15.0497C81.3522 15.348 81.5392 15.6297 81.6718 15.8949H81.7783V10.4545H84.3565V25H81.828V23.2812H81.6718C81.5392 23.5464 81.3475 23.8281 81.0965 24.1264C80.8456 24.42 80.5141 24.6709 80.1022 24.8793C79.6903 25.0876 79.1718 25.1918 78.5468 25.1918ZM79.2641 23.0824C79.8086 23.0824 80.2726 22.9356 80.6562 22.642C81.0397 22.3437 81.3309 21.9295 81.5297 21.3991C81.7286 20.8688 81.828 20.2509 81.828 19.5455C81.828 18.84 81.7286 18.2268 81.5297 17.706C81.3356 17.1851 81.0468 16.7803 80.6633 16.4915C80.2845 16.2027 79.8181 16.0582 79.2641 16.0582C78.6912 16.0582 78.213 16.2074 77.8295 16.5057C77.4459 16.804 77.1571 17.2159 76.963 17.7415C76.7689 18.267 76.6718 18.8684 76.6718 19.5455C76.6718 20.2273 76.7689 20.8357 76.963 21.3707C77.1619 21.901 77.453 22.3201 77.8366 22.6278C78.2248 22.9309 78.7007 23.0824 79.2641 23.0824ZM90.2354 25.2202C89.5441 25.2202 88.9214 25.0971 88.3675 24.8509C87.8182 24.5999 87.3826 24.2306 87.0606 23.7429C86.7434 23.2552 86.5848 22.6539 86.5848 21.9389C86.5848 21.3234 86.6984 20.8144 86.9257 20.4119C87.153 20.0095 87.4631 19.6875 87.8561 19.446C88.2491 19.2045 88.6918 19.0223 89.1842 18.8991C89.6814 18.7713 90.1951 18.679 90.7254 18.6222C91.3646 18.5559 91.8831 18.4967 92.2808 18.4446C92.6785 18.3878 92.9674 18.3026 93.1473 18.1889C93.3319 18.0705 93.4243 17.8883 93.4243 17.642V17.5994C93.4243 17.0644 93.2657 16.6501 92.9484 16.3565C92.6312 16.063 92.1743 15.9162 91.5777 15.9162C90.948 15.9162 90.4484 16.0535 90.0791 16.3281C89.7145 16.6027 89.4683 16.9271 89.3405 17.3011L86.9399 16.9602C87.1293 16.2973 87.4418 15.7434 87.8774 15.2983C88.313 14.8485 88.8457 14.5123 89.4754 14.2898C90.1052 14.0625 90.8012 13.9489 91.5635 13.9489C92.0891 13.9489 92.6123 14.0104 93.1331 14.1335C93.6539 14.2566 94.1298 14.4602 94.5606 14.7443C94.9915 15.0237 95.3372 15.4048 95.5976 15.8878C95.8627 16.3707 95.9953 16.9744 95.9953 17.6989V25H93.5237V23.5014H93.4385C93.2822 23.8045 93.0621 24.0885 92.778 24.3537C92.4986 24.6141 92.1459 24.8248 91.7197 24.9858C91.2983 25.142 90.8035 25.2202 90.2354 25.2202ZM90.903 23.331C91.4191 23.331 91.8665 23.2292 92.2453 23.0256C92.6241 22.8172 92.9153 22.5426 93.1189 22.2017C93.3272 21.8608 93.4314 21.4891 93.4314 21.0866V19.8011C93.3509 19.8674 93.2136 19.929 93.0194 19.9858C92.8301 20.0426 92.617 20.0923 92.3802 20.1349C92.1435 20.1776 91.9091 20.2154 91.6771 20.2486C91.4451 20.2817 91.2439 20.3101 91.0734 20.3338C90.6899 20.3859 90.3466 20.4711 90.0436 20.5895C89.7406 20.7079 89.5015 20.8736 89.3263 21.0866C89.1511 21.295 89.0635 21.5649 89.0635 21.8963C89.0635 22.3698 89.2363 22.7273 89.5819 22.9688C89.9276 23.2102 90.3679 23.331 90.903 23.331ZM103.655 25V10.4545H109.223C110.274 10.4545 111.148 10.6203 111.844 10.9517C112.545 11.2784 113.068 11.7259 113.414 12.294C113.764 12.8622 113.939 13.5062 113.939 14.2259C113.939 14.8177 113.826 15.3243 113.598 15.7457C113.371 16.1624 113.066 16.5009 112.682 16.7614C112.299 17.0218 111.87 17.2088 111.397 17.3224V17.4645C111.913 17.4929 112.407 17.6515 112.881 17.9403C113.359 18.2244 113.75 18.6269 114.053 19.1477C114.356 19.6686 114.507 20.2983 114.507 21.0369C114.507 21.7898 114.325 22.4669 113.961 23.0682C113.596 23.6648 113.047 24.1359 112.313 24.4815C111.579 24.8272 110.656 25 109.543 25H103.655ZM106.29 22.7983H109.124C110.08 22.7983 110.769 22.616 111.191 22.2514C111.617 21.8821 111.83 21.4086 111.83 20.831C111.83 20.4001 111.723 20.0118 111.51 19.6662C111.297 19.3158 110.994 19.0412 110.601 18.8423C110.208 18.6387 109.739 18.5369 109.195 18.5369H106.29V22.7983ZM106.29 16.6406H108.897C109.351 16.6406 109.761 16.5578 110.125 16.392C110.49 16.2216 110.776 15.9825 110.985 15.6747C111.198 15.3622 111.304 14.9929 111.304 14.5668C111.304 14.0033 111.105 13.5393 110.708 13.1747C110.315 12.8101 109.73 12.6278 108.953 12.6278H106.29V16.6406ZM118.27 25.1562C117.839 25.1562 117.47 25.0047 117.162 24.7017C116.854 24.3987 116.703 24.0294 116.707 23.5938C116.703 23.1676 116.854 22.803 117.162 22.5C117.47 22.197 117.839 22.0455 118.27 22.0455C118.686 22.0455 119.049 22.197 119.356 22.5C119.669 22.803 119.828 23.1676 119.832 23.5938C119.828 23.8826 119.752 24.1454 119.605 24.3821C119.463 24.6188 119.274 24.8082 119.037 24.9503C118.805 25.0876 118.549 25.1562 118.27 25.1562Z" fill="black"/>
<ellipse cx="20.6344" cy="20" rx="19.9762" ry="20" fill="#3E89FF"/>
</svg>
